<svg id="visual" viewBox="0 0 960 540" width="960" height="540" xmlns="http://www.w3.org/2000/svg" xmlns:xlink="http://www.w3.org/1999/xlink" version="1.1"><g><g transform="translate(722 279)"><path d="M0 -47.6L41.2 -23.8L41.2 23.8L0 47.6L-41.2 23.8L-41.2 -23.8Z" fill="none" stroke="#9da9ae" stroke-width="2"></path></g><g transform="translate(693 70)"><path d="M0 -26L22.5 -13L22.5 13L0 26L-22.5 13L-22.5 -13Z" fill="none" stroke="#9da9ae" stroke-width="2"></path></g><g transform="translate(955 482)"><path d="M0 -16L13.9 -8L13.9 8L0 16L-13.9 8L-13.9 -8Z" fill="none" stroke="#9da9ae" stroke-width="2"></path></g><g transform="translate(461 442)"><path d="M0 -19L16.5 -9.5L16.5 9.5L0 19L-16.5 9.5L-16.5 -9.5Z" fill="none" stroke="#9da9ae" stroke-width="2"></path></g><g transform="translate(259 462)"><path d="M0 -21L18.2 -10.5L18.2 10.5L0 21L-18.2 10.5L-18.2 -10.5Z" fill="none" stroke="#9da9ae" stroke-width="2"></path></g><g transform="translate(639 477)"><path d="M0 -39L33.8 -19.5L33.8 19.5L0 39L-33.8 19.5L-33.8 -19.5Z" fill="none" stroke="#9da9ae" stroke-width="2"></path></g><g transform="translate(207 287)"><path d="M0 -40L34.6 -20L34.6 20L0 40L-34.6 20L-34.6 -20Z" fill="none" stroke="#9da9ae" stroke-width="2"></path></g><g transform="translate(854 6)"><path d="M0 -14L12.1 -7L12.1 7L0 14L-12.1 7L-12.1 -7Z" fill="none" stroke="#9da9ae" stroke-width="2"></path></g><g transform="translate(545 345)"><path d="M0 -11L9.5 -5.5L9.5 5.5L0 11L-9.5 5.5L-9.5 -5.5Z" fill="none" stroke="#9da9ae" stroke-width="2"></path></g><g transform="translate(488 19)"><path d="M0 -12L10.4 -6L10.4 6L0 12L-10.4 6L-10.4 -6Z" fill="none" stroke="#9da9ae" stroke-width="2"></path></g><g transform="translate(156 189)"><path d="M0 -11L9.5 -5.5L9.5 5.5L0 11L-9.5 5.5L-9.5 -5.5Z" fill="none" stroke="#9da9ae" stroke-width="2"></path></g><g transform="translate(343 255)"><path d="M0 -35L30.3 -17.5L30.3 17.5L0 35L-30.3 17.5L-30.3 -17.5Z" fill="none" stroke="#9da9ae" stroke-width="2"></path></g><g transform="translate(710 398)"><path d="M0 -11L9.5 -5.5L9.5 5.5L0 11L-9.5 5.5L-9.5 -5.5Z" fill="none" stroke="#9da9ae" stroke-width="2"></path></g><g transform="translate(290 46)"><path d="M0 -21L18.2 -10.5L18.2 10.5L0 21L-18.2 10.5L-18.2 -10.5Z" fill="none" stroke="#9da9ae" stroke-width="2"></path></g><g transform="translate(827 474)"><path d="M0 -33L28.6 -16.5L28.6 16.5L0 33L-28.6 16.5L-28.6 -16.5Z" fill="none" stroke="#9da9ae" stroke-width="2"></path></g><g transform="translate(357 350)"><path d="M0 -40L34.6 -20L34.6 20L0 40L-34.6 20L-34.6 -20Z" stroke="#9da9ae" fill="none" stroke-width="2"></path></g><g transform="translate(86 42)"><path d="M0 -31L26.8 -15.5L26.8 15.5L0 31L-26.8 15.5L-26.8 -15.5Z" stroke="#9da9ae" fill="none" stroke-width="2"></path></g><g transform="translate(836 200)"><path d="M0 -18L15.6 -9L15.6 9L0 18L-15.6 9L-15.6 -9Z" stroke="#9da9ae" fill="none" stroke-width="2"></path></g><g transform="translate(68 415)"><path d="M0 -24L20.8 -12L20.8 12L0 24L-20.8 12L-20.8 -12Z" stroke="#9da9ae" fill="none" stroke-width="2"></path></g><g transform="translate(205 101)"><path d="M0 -36L31.2 -18L31.2 18L0 36L-31.2 18L-31.2 -18Z" stroke="#9da9ae" fill="none" stroke-width="2"></path></g><g transform="translate(353 138)"><path d="M0 -21L18.2 -10.5L18.2 10.5L0 21L-18.2 10.5L-18.2 -10.5Z" stroke="#9da9ae" fill="none" stroke-width="2"></path></g><g transform="translate(400 538)"><path d="M0 -31L26.8 -15.5L26.8 15.5L0 31L-26.8 15.5L-26.8 -15.5Z" stroke="#9da9ae" fill="none" stroke-width="2"></path></g><g transform="translate(938 144)"><path d="M0 -23L19.9 -11.5L19.9 11.5L0 23L-19.9 11.5L-19.9 -11.5Z" stroke="#9da9ae" fill="none" stroke-width="2"></path></g><g transform="translate(80 510)"><path d="M0 -37L32 -18.5L32 18.5L0 37L-32 18.5L-32 -18.5Z" stroke="#9da9ae" fill="none" stroke-width="2"></path></g><g transform="translate(467 113)"><path d="M0 -44L38.1 -22L38.1 22L0 44L-38.1 22L-38.1 -22Z" stroke="#9da9ae" fill="none" stroke-width="2"></path></g><g transform="translate(430 207)"><path d="M0 -21L18.2 -10.5L18.2 10.5L0 21L-18.2 10.5L-18.2 -10.5Z" stroke="#9da9ae" fill="none" stroke-width="2"></path></g><g transform="translate(19 317)"><path d="M0 -23L19.9 -11.5L19.9 11.5L0 23L-19.9 11.5L-19.9 -11.5Z" stroke="#9da9ae" fill="none" stroke-width="2"></path></g><g transform="translate(911 359)"><path d="M0 -30L26 -15L26 15L0 30L-26 15L-26 -15Z" stroke="#9da9ae" fill="none" stroke-width="2"></path></g><g transform="translate(617 138)"><path d="M0 -40L34.6 -20L34.6 20L0 40L-34.6 20L-34.6 -20Z" stroke="#9da9ae" fill="none" stroke-width="2"></path></g><g transform="translate(740 516)"><path d="M0 -33L28.6 -16.5L28.6 16.5L0 33L-28.6 16.5L-28.6 -16.5Z" stroke="#9da9ae" fill="none" stroke-width="2"></path></g><g transform="translate(808 372)"><path d="M0 -15L13 -7.5L13 7.5L0 15L-13 7.5L-13 -7.5Z" stroke="#9da9ae" fill="none" stroke-width="2"></path></g><g transform="translate(5 169)"><path d="M0 -18L15.6 -9L15.6 9L0 18L-15.6 9L-15.6 -9Z" stroke="#9da9ae" fill="none" stroke-width="2"></path></g><g transform="translate(959 49)"><path d="M0 -28L24.2 -14L24.2 14L0 28L-24.2 14L-24.2 -14Z" stroke="#9da9ae" fill="none" stroke-width="2"></path></g><g transform="translate(801 105)"><path d="M0 -15L13 -7.5L13 7.5L0 15L-13 7.5L-13 -7.5Z" stroke="#9da9ae" fill="none" stroke-width="2"></path></g><g transform="translate(563 246)"><path d="M0 -28L24.2 -14L24.2 14L0 28L-24.2 14L-24.2 -14Z" stroke="#9da9ae" fill="none" stroke-width="2"></path></g><g transform="translate(203 5)"><path d="M0 -43L37.2 -21.5L37.2 21.5L0 43L-37.2 21.5L-37.2 -21.5Z" stroke="#9da9ae" fill="none" stroke-width="2"></path></g><g transform="translate(532 508)"><path d="M0 -27L23.4 -13.5L23.4 13.5L0 27L-23.4 13.5L-23.4 -13.5Z" stroke="#9da9ae" fill="none" stroke-width="2"></path></g><g transform="translate(181 534)"><path d="M0 -28L24.2 -14L24.2 14L0 28L-24.2 14L-24.2 -14Z" stroke="#9da9ae" fill="none" stroke-width="2"></path></g><g transform="translate(950 263)"><path d="M0 -11L9.5 -5.5L9.5 5.5L0 11L-9.5 5.5L-9.5 -5.5Z" stroke="#9da9ae" fill="none" stroke-width="2"></path></g><g transform="translate(603 32)"><path d="M0 -14L12.1 -7L12.1 7L0 14L-12.1 7L-12.1 -7Z" stroke="#9da9ae" fill="none" stroke-width="2"></path></g><g transform="translate(191 388)"><path d="M0 -22L19.1 -11L19.1 11L0 22L-19.1 11L-19.1 -11Z" stroke="#9da9ae" fill="none" stroke-width="2"></path></g><g transform="translate(386 37)"><path d="M0 -20L17.3 -10L17.3 10L0 20L-17.3 10L-17.3 -10Z" stroke="#9da9ae" fill="none" stroke-width="2"></path></g><g transform="translate(723 162)"><path d="M0 -33L28.6 -16.5L28.6 16.5L0 33L-28.6 16.5L-28.6 -16.5Z" stroke="#9da9ae" fill="none" stroke-width="2"></path></g><g transform="translate(447 307)"><path d="M0 -13L11.3 -6.5L11.3 6.5L0 13L-11.3 6.5L-11.3 -6.5Z" stroke="#9da9ae" fill="none" stroke-width="2"></path></g><g transform="translate(264 185)"><path d="M0 -43L37.2 -21.5L37.2 21.5L0 43L-37.2 21.5L-37.2 -21.5Z" stroke="#9da9ae" fill="none" stroke-width="2"></path></g></g></svg>