<svg id="visual" viewBox="0 0 960 540" width="960" height="540" xmlns="http://www.w3.org/2000/svg" xmlns:xlink="http://www.w3.org/1999/xlink" version="1.1"><path d="M520 0L527.3 6.5C534.7 13 549.3 26 557.8 38.8C566.3 51.7 568.7 64.3 541.8 77.2C515 90 459 103 429.8 115.8C400.7 128.7 398.3 141.3 418.3 154.2C438.3 167 480.7 180 490.8 192.8C501 205.7 479 218.3 464.5 231.2C450 244 443 257 462.2 270C481.3 283 526.7 296 547.5 308.8C568.3 321.7 564.7 334.3 557 347.2C549.3 360 537.7 373 509.3 385.8C481 398.7 436 411.3 436.7 424.2C437.3 437 483.7 450 494.5 462.8C505.3 475.7 480.7 488.3 488.3 501.2C496 514 536 527 556 533.5L576 540L0 540L0 533.5C0 527 0 514 0 501.2C0 488.3 0 475.7 0 462.8C0 450 0 437 0 424.2C0 411.3 0 398.7 0 385.8C0 373 0 360 0 347.2C0 334.3 0 321.7 0 308.8C0 296 0 283 0 270C0 257 0 244 0 231.2C0 218.3 0 205.7 0 192.8C0 180 0 167 0 154.2C0 141.3 0 128.7 0 115.8C0 103 0 90 0 77.2C0 64.3 0 51.7 0 38.8C0 26 0 13 0 6.5L0 0Z" fill="#091628" stroke-linecap="round" stroke-linejoin="miter"></path></svg>